# xmcd
#
# Track frame offsets:
#	150
#	19060
#	35895
#	54050
#	72357
#	92922
#	112427
#	128277
#	143045
#	163937
#
# Disc length: 2455 seconds
#
# Revision: 5
# Processed by: cddbd v1.5.2PL0 Copyright (c) Steve Scherf et al.
# Submitted via: audiograbber 1.83.01
#
DISCID=8b09950a
DTITLE=Various Artist - Amazing Grace: A Country Salute To Gospel
DYEAR=1995
DGENRE=Country
TTITLE0=Lari White - Amazing Grace
TTITLE1=John Anderson - Peace in the Valley
TTITLE2=John Berry - Blessed Assurance
TTITLE3=Martina McBride - How Great Thou Art
TTITLE4=Billy Dean and Susan Ashton - In the Garden
TTITLE5=Paul Overstreet - Mansion Over the Hilltop
TTITLE6=Shenandoah - Beulah Land
TTITLE7=Alison Krauss and The Cox Family feat. Suzanne Cox - I'd Rather Have Jesu
TTITLE7=s
TTITLE8=Charlie Daniels Band - Kneel at the Cross
TTITLE9=Emmylou Harris - Precious Memories
EXTD=
EXTT0=
EXTT1=
EXTT2=
EXTT3=
EXTT4=
EXTT5=
EXTT6=
EXTT7=
EXTT8=
EXTT9=
PLAYORDER=
